<?xml version="1.0" encoding="UTF-8" standalone="no"?>
<svg
   height="18"
   viewBox="0 -960 800 720"
   width="20"
   version="1.1"
   id="svg4"
   sodipodi:docname="vote4photo_ico_web.svg"
   inkscape:version="1.3.1 (91b66b0783, 2023-11-16)"
   inkscape:export-filename="vote4photo_ico_128.png"
   inkscape:export-xdpi="614.40002"
   inkscape:export-ydpi="614.40002"
   xmlns:inkscape="http://www.inkscape.org/namespaces/inkscape"
   xmlns:sodipodi="http://sodipodi.sourceforge.net/DTD/sodipodi-0.dtd"
   xmlns="http://www.w3.org/2000/svg"
   xmlns:svg="http://www.w3.org/2000/svg">
  <defs
     id="defs8" />
  <sodipodi:namedview
     id="namedview6"
     pagecolor="#ffffff"
     bordercolor="#666666"
     borderopacity="1.0"
     inkscape:pageshadow="2"
     inkscape:pageopacity="0.0"
     inkscape:pagecheckerboard="0"
     showgrid="false"
     fit-margin-top="0"
     fit-margin-left="0"
     fit-margin-right="0"
     fit-margin-bottom="0"
     inkscape:zoom="12.860505"
     inkscape:cx="4.9764766"
     inkscape:cy="14.92943"
     inkscape:window-width="2313"
     inkscape:window-height="1082"
     inkscape:window-x="757"
     inkscape:window-y="132"
     inkscape:window-maximized="0"
     inkscape:current-layer="svg4"
     inkscape:showpageshadow="2"
     inkscape:deskcolor="#d1d1d1" />
  <g
     id="g6"
     transform="translate(-3.1103006)"
     style="fill:#ffffff">
    <rect
       style="opacity:1;fill:#ffffff;fill-opacity:1;stroke:none;stroke-width:53.7666;stroke-linecap:round;stroke-linejoin:round;stroke-miterlimit:5;stroke-dasharray:none;stroke-opacity:1"
       id="rect5"
       width="683.48798"
       height="510.86642"
       x="56.762939"
       y="-816.92627"
       rx="0"
       ry="0" />
    <rect
       style="fill:#ffffff;fill-opacity:1;stroke:none;stroke-width:18.3514;stroke-linecap:round;stroke-linejoin:round;stroke-miterlimit:5;stroke-dasharray:none;stroke-opacity:1"
       id="rect5-9"
       width="315.13782"
       height="129.07736"
       x="244.86276"
       y="-890.362"
       rx="0"
       ry="0" />
  </g>
  <g
     id="g1"
     transform="translate(-238.32011,-295.89387)">
    <path
       id="path9372-7-5-0"
       style="fill:#ff6600;stroke:#ff6600;stroke-width:0.433525;stroke-linecap:round;stroke-linejoin:round;paint-order:stroke fill markers"
       inkscape:transform-center-x="0.31417743"
       inkscape:transform-center-y="-6.6574329"
       transform="matrix(28.079823,-2.94334,2.94334,28.079823,339.85801,254.23465)"
       d="m 7.4258361,-9.6030447 -1.4117429,-1.2094943 -1.6092755,0.9353951 0.7140453,-1.7164021 -1.3869074,-1.241458 1.8530472,0.1487 0.7521195,-1.70266 0.4312009,1.808304 1.8517429,0.189157 -1.5865505,0.968893 z" />
    <path
       id="path9372-7-5-0-9"
       style="fill:none;stroke:#ff6600;stroke-width:0.433525;stroke-linecap:round;stroke-linejoin:round;paint-order:stroke fill markers"
       inkscape:transform-center-x="0.31417743"
       inkscape:transform-center-y="-6.6574329"
       transform="matrix(28.079823,-2.94334,2.94334,28.079823,664.18983,254.23465)"
       d="m 7.4258361,-9.6030447 -1.4117429,-1.2094943 -1.6092755,0.9353951 0.7140453,-1.7164021 -1.3869074,-1.241458 1.8530472,0.1487 0.7521195,-1.70266 0.4312009,1.808304 1.8517429,0.189157 -1.5865505,0.968893 z" />
    <path
       id="path9372-7-5-0-4"
       style="fill:#ff6600;stroke:#ff6600;stroke-width:0.433525;stroke-linecap:round;stroke-linejoin:round;paint-order:stroke fill markers"
       inkscape:transform-center-x="0.31417743"
       inkscape:transform-center-y="-6.6574329"
       transform="matrix(28.079823,-2.94334,2.94334,28.079823,502.02392,254.23465)"
       d="m 7.4258361,-9.6030447 -1.4117429,-1.2094943 -1.6092755,0.9353951 0.7140453,-1.7164021 -1.3869074,-1.241458 1.8530472,0.1487 0.7521195,-1.70266 0.4312009,1.808304 1.8517429,0.189157 -1.5865505,0.968893 z" />
  </g>
  <path
     style="fill:#5599ff;fill-opacity:1;stroke:none;stroke-width:2.61578;stroke-linecap:round;stroke-linejoin:round;stroke-miterlimit:5;stroke-dasharray:none;stroke-opacity:1"
     d="m 577.54742,-888.51659 c -7.04348,-8.59577 -17.37334,-21.32196 -22.95524,-28.28045 l -10.14893,-12.65177 h 65.75175 65.75174 l 8.38186,24.55934 c 4.60996,13.50762 8.96887,26.23381 9.68639,28.28041 1.01815,2.90457 -10.21222,3.72108 -51.17836,3.72108 h -52.4829 z"
     id="path4" />
  <g
     id="g5"
     transform="translate(-119.99999,-203.54417)">
    <path
       d="m 519.99995,-276.32907 c 47.1921,0 87.3054,-15.91245 120.3399,-47.73735 33.0344,-31.82491 49.5517,-70.46943 49.5517,-115.93358 0,-45.46415 -16.5173,-84.10868 -49.5517,-115.93358 -33.0345,-31.82491 -73.1478,-47.73736 -120.3399,-47.73736 -47.1921,0 -87.3053,15.91245 -120.3398,47.73736 -33.0345,31.8249 -49.5517,70.46943 -49.5517,115.93358 0,45.46415 16.5172,84.10867 49.5517,115.93358 33.0345,31.8249 73.1477,47.73735 120.3398,47.73735 z m 0,-72.74264 c -26.4275,0 -48.7651,-8.78974 -67.0127,-26.3692 -18.2476,-17.57946 -27.3714,-39.09917 -27.3714,-64.55909 0,-25.45993 9.1238,-46.97964 27.3714,-64.5591 18.2476,-17.57945 40.5852,-26.3692 67.0127,-26.3692 26.4276,0 48.7652,8.78975 67.0128,26.3692 18.2476,17.57946 27.3714,39.09917 27.3714,64.5591 0,25.45992 -9.1238,46.97963 -27.3714,64.55909 -18.2476,17.57946 -40.5852,26.3692 -67.0128,26.3692 z"
       id="path1010"
       style="fill:#5599ff;stroke-width:37.056" />
    <path
       d="m 510.25155,-488.74226 h 129.9794 q -10.967,-28.02681 -33.5103,-48.13299 -22.5433,-20.10619 -51.7887,-28.2299 z m -37.3691,32.49485 64.9897,-112.10722 q -4.468,-0.81237 -8.9361,-1.21856 -4.468,-0.40618 -8.936,-0.40618 -26.8083,0 -49.9609,10.15463 -23.1525,10.15464 -41.0247,27.21444 z m -78.8,48.74226 h 88.5485 l -64.9897,-112.10722 q -12.998,16.65362 -20.3093,36.7598 -7.3113,20.10619 -7.3113,42.85258 0,8.52989 1.0154,16.45051 1.0155,7.92062 3.0464,16.04433 z m 90.9856,92.61031 43.868,-76.36289 h -129.167 q 10.967,28.02681 33.5103,48.13299 22.5433,20.10619 51.7887,28.2299 z m 34.9319,4.87422 q 26.8083,0 49.9609,-10.15463 23.1525,-10.15464 41.0247,-27.21444 l -43.868,-76.36288 -64.9897,112.10721 q 4.468,0.81237 8.733,1.21856 4.2649,0.40618 9.1391,0.40618 z m 102.3588,-50.367 q 12.9979,-16.65361 20.3093,-36.75979 7.3113,-20.10619 7.3113,-42.85258 0,-8.5299 -1.0154,-16.45052 -1.0155,-7.92061 -3.0464,-16.04433 h -88.5485 z m -102.3588,-79.61237 z m 0,162.47422 q -33.3072,0 -62.9587,-12.79485 -29.6516,-12.79483 -51.7887,-34.93195 -22.1371,-22.13712 -34.9319,-51.78866 -12.7949,-29.65155 -12.7949,-62.95876 0,-33.71341 12.7949,-63.16186 12.7948,-29.44845 34.9319,-51.58556 22.1371,-22.13712 51.7887,-34.93196 29.6515,-12.79485 62.9587,-12.79485 33.7134,0 63.1619,12.79485 29.4484,12.79484 51.5856,34.93196 22.1371,22.13711 34.9319,51.58556 12.7949,29.44845 12.7949,63.16186 0,33.30721 -12.7949,62.95876 -12.7948,29.65154 -34.9319,51.78866 -22.1371,22.13712 -51.5856,34.93195 -29.4485,12.79485 -63.1619,12.79485 z"
       id="path2-8"
       style="fill:#5599ff;fill-opacity:1;stroke-width:0.406185" />
  </g>
  <rect
     style="opacity:0.896624;fill:#ff6600;fill-opacity:1;stroke:none;stroke-width:5.24819;stroke-linecap:round;stroke-linejoin:round;stroke-miterlimit:5;stroke-dasharray:none;stroke-opacity:1"
     id="rect1"
     width="115.15503"
     height="65.979378"
     x="80.137459"
     y="-909.41577"
     rx="10.795783"
     ry="6.6720719" />
  <path
     d="m 80,-240 c -22,0 -40.83333,-7.83333 -56.5,-23.5 C 7.83333,-279.16667 0,-298 0,-320 v -480 c 0,-22 7.83333,-40.83333 23.5,-56.5 C 39.16667,-872.16667 58,-880 80,-880 h 126.00001 l 74,-80 h 240 l 74,80 h 126 c 22,0 40.8333,7.83333 56.5,23.5 15.6667,15.66667 23.5,34.5 23.5,56.5 v 480 c 0,22 -7.8333,40.83333 -23.5,56.5 -15.6667,15.66667 -34.5,23.5 -56.5,23.5 z m 0,-80 h 640.00001 v -480 h -162 l -73,-80 h -170 l -73,80 H 80 Z"
     id="path2-3"
     sodipodi:nodetypes="ssssssccccsssssssccccccccc"
     style="fill:#666666;fill-opacity:1" />
  <rect
     style="fill:none;fill-opacity:1;stroke:#666666;stroke-width:39.2279;stroke-linecap:round;stroke-linejoin:round;stroke-miterlimit:5;stroke-dasharray:none;stroke-opacity:1"
     id="rect2"
     width="171.18427"
     height="101.46017"
     x="886.71777"
     y="-1014.2841"
     rx="0"
     ry="0"
     transform="matrix(1,0,0.37127059,0.92852472,0,0)" />
</svg>
