<?xml version="1.0" encoding="UTF-8" standalone="no"?>
<svg
   height="26"
   viewBox="0 -960 1040 1040"
   width="26"
   version="1.1"
   id="svg4"
   sodipodi:docname="vote4photo_ico.svg"
   inkscape:version="1.1.2 (b8e25be833, 2022-02-05)"
   xmlns:inkscape="http://www.inkscape.org/namespaces/inkscape"
   xmlns:sodipodi="http://sodipodi.sourceforge.net/DTD/sodipodi-0.dtd"
   xmlns="http://www.w3.org/2000/svg"
   xmlns:svg="http://www.w3.org/2000/svg">
  <defs
     id="defs8" />
  <sodipodi:namedview
     id="namedview6"
     pagecolor="#ffffff"
     bordercolor="#666666"
     borderopacity="1.0"
     inkscape:pageshadow="2"
     inkscape:pageopacity="0.0"
     inkscape:pagecheckerboard="0"
     showgrid="false"
     fit-margin-top="0"
     fit-margin-left="0"
     fit-margin-right="0"
     fit-margin-bottom="0"
     inkscape:zoom="18.1875"
     inkscape:cx="16.714777"
     inkscape:cy="15.092784"
     inkscape:window-width="2313"
     inkscape:window-height="1082"
     inkscape:window-x="757"
     inkscape:window-y="132"
     inkscape:window-maximized="0"
     inkscape:current-layer="svg4" />
  <rect
     style="opacity:1;fill:#ffffff;stroke-width:39.0044;stroke-linecap:round;stroke-linejoin:round;paint-order:stroke fill markers;fill-opacity:1"
     id="rect21126"
     width="1040"
     height="1040"
     x="0"
     y="-960"
     rx="151.75258"
     ry="151.75258"
     inkscape:export-filename="d:\v4p_ico.png"
     inkscape:export-xdpi="945.22998"
     inkscape:export-ydpi="945.22998" />
  <g
     id="g20859"
     transform="translate(0,160)">
    <path
       d="m 959.07769,-243.44634 c 22,0 40.83333,-6.78051 56.50001,-20.34154 15.6667,-13.56103 23.5,-29.86312 23.5,-48.90626 v -415.48683 c 0,-19.04315 -7.8333,-35.34523 -23.5,-48.90626 -15.66668,-13.56103 -34.50001,-20.34155 -56.50001,-20.34155 h -126 l -74,-69.2478 h -240 v 69.2478 h 205 l 73,69.24781 h 162 v 415.48683 h -640 v -311.61512 h -80.00001 v 311.61512 c 0,19.04314 7.83334,35.34523 23.50001,48.90626 15.66666,13.56103 34.5,20.34154 56.5,20.34154 z"
       id="path2"
       sodipodi:nodetypes="sssssscccccccccccssss"
       style="fill:#666666;stroke-width:0.930375" />
    <path
       d="m 632.47975,-358.01679 c 47.19209,0 87.30538,-15.91245 120.33983,-47.73735 33.03446,-31.82491 49.55169,-70.46943 49.55169,-115.93358 0,-45.46415 -16.51723,-84.10868 -49.55169,-115.93358 -33.03446,-31.82491 -73.14774,-47.73736 -120.33983,-47.73736 -47.19209,0 -87.30537,15.91245 -120.33983,47.73736 -33.03447,31.8249 -49.5517,70.46943 -49.5517,115.93358 0,45.46415 16.51723,84.10867 49.5517,115.93358 33.03446,31.8249 73.14774,47.73735 120.33983,47.73735 z m 0,-72.74264 c -26.42757,0 -48.76516,-8.78974 -67.01277,-26.3692 -18.2476,-17.57946 -27.37141,-39.09917 -27.37141,-64.55909 0,-25.45993 9.12381,-46.97964 27.37141,-64.5591 18.24761,-17.57945 40.5852,-26.3692 67.01277,-26.3692 26.42757,0 48.76518,8.78975 67.01277,26.3692 18.24761,17.57946 27.37143,39.09917 27.37143,64.5591 0,25.45992 -9.12382,46.97963 -27.37142,64.55909 -18.24759,17.57946 -40.5852,26.3692 -67.01278,26.3692 z"
       id="path1010"
       style="fill:#5599ff;stroke-width:37.056" />
    <path
       sodipodi:type="star"
       style="opacity:1;fill:#ff6600;fill-opacity:1;stroke:none;stroke-width:1;stroke-linecap:round;stroke-linejoin:round;stroke-miterlimit:4;stroke-dasharray:none;paint-order:stroke fill markers"
       id="path9372"
       inkscape:flatsided="false"
       sodipodi:sides="5"
       sodipodi:cx="6.1039596"
       sodipodi:cy="-11.819132"
       sodipodi:r1="2.5803876"
       sodipodi:r2="1.010596"
       sodipodi:arg1="1.0329608"
       sodipodi:arg2="1.6598381"
       inkscape:rounded="0"
       inkscape:randomized="0"
       transform="matrix(52.232445,-5.475029,5.475029,52.232445,95.073981,-171.53401)"
       inkscape:transform-center-x="0.58442555"
       inkscape:transform-center-y="-12.383769"
       d="m 7.4258361,-9.6030447 -1.4117429,-1.2094943 -1.6092755,0.9353951 0.7140453,-1.7164021 -1.3869074,-1.241458 1.8530472,0.1487 0.7521195,-1.70266 0.4312009,1.808304 1.8517429,0.189157 -1.5865505,0.968893 z" />
    <path
       sodipodi:type="star"
       style="opacity:1;fill:#ff6600;fill-opacity:1;stroke:none;stroke-width:1;stroke-linecap:round;stroke-linejoin:round;stroke-miterlimit:4;stroke-dasharray:none;paint-order:stroke fill markers"
       id="path9372-64"
       inkscape:flatsided="false"
       sodipodi:sides="5"
       sodipodi:cx="6.1039596"
       sodipodi:cy="-11.819132"
       sodipodi:r1="2.5803876"
       sodipodi:r2="1.010596"
       sodipodi:arg1="1.0329608"
       sodipodi:arg2="1.6598381"
       inkscape:rounded="0"
       inkscape:randomized="0"
       transform="matrix(38.099764,-14.458454,14.458454,38.099764,86.676787,-197.26649)"
       inkscape:transform-center-x="8.7366351"
       inkscape:transform-center-y="-1.3624639"
       d="m 7.4258361,-9.6030447 -1.4117429,-1.2094943 -1.6092755,0.9353951 0.7140453,-1.7164021 -1.3869074,-1.241458 1.8530472,0.1487 0.7521195,-1.70266 0.4312009,1.808304 1.8517429,0.189157 -1.5865505,0.968893 z" />
    <path
       sodipodi:type="star"
       style="opacity:1;fill:#ff6600;fill-opacity:1;stroke:none;stroke-width:1;stroke-linecap:round;stroke-linejoin:round;stroke-miterlimit:4;stroke-dasharray:none;paint-order:stroke fill markers"
       id="path9372-64-9"
       inkscape:flatsided="false"
       sodipodi:sides="5"
       sodipodi:cx="6.1039596"
       sodipodi:cy="-11.819132"
       sodipodi:r1="2.5803876"
       sodipodi:r2="1.010596"
       sodipodi:arg1="1.0329608"
       sodipodi:arg2="1.6598381"
       inkscape:rounded="0"
       inkscape:randomized="0"
       transform="matrix(16.215631,-1.6599746,1.6599746,16.215631,103.15534,-85.928314)"
       inkscape:transform-center-x="0.14986637"
       inkscape:transform-center-y="-3.8736992"
       d="m 7.4258361,-9.6030447 -1.4117429,-1.2094943 -1.6092755,0.9353951 0.7140453,-1.7164021 -1.3869074,-1.241458 1.8530472,0.1487 0.7521195,-1.70266 0.4312009,1.808304 1.8517429,0.189157 -1.5865505,0.968893 z" />
    <path
       sodipodi:type="star"
       style="opacity:1;fill:#ff6600;fill-opacity:1;stroke:none;stroke-width:1;stroke-linecap:round;stroke-linejoin:round;stroke-miterlimit:4;stroke-dasharray:none;paint-order:stroke fill markers"
       id="path9372-64-1"
       inkscape:flatsided="false"
       sodipodi:sides="5"
       sodipodi:cx="6.1039596"
       sodipodi:cy="-11.819132"
       sodipodi:r1="2.5803876"
       sodipodi:r2="1.010596"
       sodipodi:arg1="1.0329608"
       sodipodi:arg2="1.6598381"
       inkscape:rounded="0"
       inkscape:randomized="0"
       transform="matrix(23.311132,-7.3770674,7.3770674,23.311132,57.02996,-61.591881)"
       inkscape:transform-center-x="4.1786943"
       inkscape:transform-center-y="-1.9105682"
       d="m 7.4258361,-9.6030447 -1.4117429,-1.2094943 -1.6092755,0.9353951 0.7140453,-1.7164021 -1.3869074,-1.241458 1.8530472,0.1487 0.7521195,-1.70266 0.4312009,1.808304 1.8517429,0.189157 -1.5865505,0.968893 z" />
    <path
       sodipodi:type="star"
       style="opacity:1;fill:#ff6600;fill-opacity:1;stroke:none;stroke-width:1;stroke-linecap:round;stroke-linejoin:round;stroke-miterlimit:4;stroke-dasharray:none;paint-order:stroke fill markers"
       id="path9372-64-2"
       inkscape:flatsided="false"
       sodipodi:sides="5"
       sodipodi:cx="6.1039596"
       sodipodi:cy="-11.819132"
       sodipodi:r1="2.5803876"
       sodipodi:r2="1.010596"
       sodipodi:arg1="1.0329608"
       sodipodi:arg2="1.6598381"
       inkscape:rounded="0"
       inkscape:randomized="0"
       transform="matrix(29.729397,-13.368065,13.368065,29.729397,60.630389,-99.978932)"
       inkscape:transform-center-x="7.5875619"
       inkscape:transform-center-y="0.46593679"
       d="m 7.4258361,-9.6030447 -1.4117429,-1.2094943 -1.6092755,0.9353951 0.7140453,-1.7164021 -1.3869074,-1.241458 1.8530472,0.1487 0.7521195,-1.70266 0.4312009,1.808304 1.8517429,0.189157 -1.5865505,0.968893 z" />
    <path
       id="path864-2"
       style="fill:#5599ff;fill-opacity:1;stroke:none;stroke-width:37.1285;stroke-linecap:round;stroke-linejoin:round;paint-order:stroke fill markers"
       d="m 632.47751,-618.08864 a 96.401055,96.401055 0 0 0 -4.70014,0.3354 v 47.61236 l -70.80979,32.22554 45.09461,-75.05049 a 96.401055,96.401055 0 0 0 -15.03764,6.54709 l -46.05027,76.50234 c 0,0 0,0.23432 -0.23432,0.23432 0,0.23523 -0.2389,0.23341 -0.2389,0.46863 v 0.47323 c 0,0.23522 0,0.2334 -0.23428,0.46863 v 1.88376 c 0,0.23523 0,0.23341 0.23428,0.46864 v 0.23427 c 0.23526,0.4705 0.47231,0.70667 0.70758,0.9419 l 0.23427,0.23432 0.70754,0.70753 c 0,0 0.23432,0 0.23432,0.23432 l 87.74494,51.28332 h 0.2343 c 0.23523,0.23527 0.46772,0.23432 0.70296,0.23432 h 0.2389 c 0.47048,0 0.70571,0.23427 1.17618,0.23427 0.47047,0 0.70571,0 1.17618,-0.23427 h 0.2343 c 0.23524,0 0.46772,-0.23432 0.70296,-0.23432 h 0.2389 l 87.50605,-51.049 c 0.23524,0 0.23336,-0.23432 0.46864,-0.23432 l 0.23891,-0.23432 0.46864,-0.46863 0.23429,-0.2389 c 0,-0.23527 0.23429,-0.23341 0.23429,-0.46864 0,-0.23523 0.23891,-0.23341 0.23891,-0.46863 0,-0.23528 -7.4e-4,-0.238 0.2343,-0.47322 0,-0.23523 -7.4e-4,-0.23341 0.23429,-0.46864 v -1.41054 -0.47322 c 0,-0.23523 7.4e-4,-0.23341 -0.23429,-0.46863 v -0.47323 c 0,-0.23522 -0.2343,-0.2334 -0.2343,-0.46863 0,0 -0.004,-0.23432 -0.23891,-0.23432 l -46.39481,-76.95259 a 96.401055,96.401055 0 0 0 -14.81255,-6.29898 l 45.21406,75.25263 -70.80521,-32.22554 v -47.82829 a 96.401055,96.401055 0 0 0 -4.7093,-0.11947 z m -4.70014,58.29446 v 75.2756 l -72.45461,-42.34252 z m 9.40945,0 72.45002,32.93308 -72.45002,42.34252 z m -91.74671,50.53447 c -1.34158,-0.004 -2.68317,0.56514 -3.56529,1.59428 -1.41144,1.64667 -1.64485,3.99902 -0.46864,5.88092 l 46.5786,65.35617 a 96.401055,96.401055 0 0 0 16.36546,6.87788 l -42.24602,-59.29605 65.86614,39.28262 v 23.95548 a 96.401055,96.401055 0 0 0 4.50715,0.32161 96.401055,96.401055 0 0 0 4.9023,-0.34916 v -23.92793 l 65.86616,-39.51694 -42.18634,59.365 a 96.401055,96.401055 0 0 0 15.79116,-6.6436 l 46.62916,-65.42508 c 1.17618,-1.8819 1.17343,-4.23425 -0.47322,-5.88092 -1.64665,-1.64666 -3.29056,-1.8828 -5.40769,-0.94185 l -84.92395,51.04904 -84.91936,-51.04904 c -0.70572,-0.44108 -1.51067,-0.64967 -2.31562,-0.65243 z" />
  </g>
</svg>
